# xmcd
#
# Track frame offsets:
#	150
#	22307
#	46262
#	63527
#	89650
#	105537
#	123970
#	138282
#	153805
#	167877
#	187690
#	200760
#	215282
#	230960
#
# Disc length: 3363 seconds
#
# Revision: 1
# Processed by: cddbd v1.5.2PL0 Copyright (c) Steve Scherf et al.
# Submitted via: audiograbber 1.83.01
#
DISCID=c60d210e
DTITLE=Bluesballs - 3
DYEAR=2009
DGENRE=Blues Rock
TTITLE0=Say What
TTITLE1=Shakey Ground
TTITLE2=You Upset Me Baby
TTITLE3=May I Have A Talk To You
TTITLE4=Wishy Washy Woman
TTITLE5=Gangster Of Love
TTITLE6=Caldonia
TTITLE7=Leland Mississippi Blues
TTITLE8=Hey Joe
TTITLE9=Superstition
TTITLE10=Driving Wheel
TTITLE11=Texas Tango
TTITLE12=Come Together
TTITLE13=Born Under A Bad Sign
EXTD=
EXTT0=
EXTT1=
EXTT2=
EXTT3=
EXTT4=
EXTT5=
EXTT6=
EXTT7=
EXTT8=
EXTT9=
EXTT10=
EXTT11=
EXTT12=
EXTT13=
PLAYORDER=
